<?xml version="1.0" standalone="no"?>
<!DOCTYPE svg PUBLIC "-//W3C//DTD SVG 20010904//EN"
 "http://www.w3.org/TR/2001/REC-SVG-20010904/DTD/svg10.dtd">
<svg version="1.0" xmlns="http://www.w3.org/2000/svg"
 width="90.000000pt" height="90.000000pt" viewBox="0 0 90.000000 90.000000"
 preserveAspectRatio="xMidYMid meet">

<g transform="translate(0.000000,90.000000) scale(0.100000,-0.100000)"
fill="#000000" stroke="none">
<path d="M235 695 c-24 -23 -25 -29 -25 -164 0 -111 -3 -145 -17 -168 -19 -35
-12 -73 19 -103 20 -19 33 -20 138 -18 110 3 115 4 118 25 4 28 -12 32 -133
36 -83 2 -90 4 -90 22 0 18 6 20 55 19 30 0 69 -6 86 -14 43 -18 86 -6 82 23
-2 17 -11 23 -35 25 -17 2 -37 10 -43 18 -8 9 -31 14 -65 14 -39 0 -54 4 -59
16 -8 20 -8 198 0 218 5 14 30 16 170 16 185 0 171 7 176 -90 3 -37 6 -45 23
-45 18 0 20 8 23 73 3 66 1 74 -22 97 -25 25 -27 25 -201 25 -173 0 -176 0
-200 -25z"/>
<path d="M535 455 c-23 -22 -25 -31 -25 -125 0 -94 2 -103 25 -125 35 -36 125
-36 160 0 23 22 25 31 25 125 0 94 -2 103 -25 125 -20 21 -34 25 -80 25 -46 0
-60 -4 -80 -25z m125 -125 l0 -90 -45 0 -45 0 0 90 0 90 45 0 45 0 0 -90z"/>
</g>
</svg>
