<svg version="1.1" xmlns="http://www.w3.org/2000/svg" xmlns:xlink="http://www.w3.org/1999/xlink" width="24" height="24" viewBox="0,0,256,256"><g fill="#ffffff" fill-rule="evenodd" stroke="none" stroke-width="1" stroke-linecap="butt" stroke-linejoin="miter" stroke-miterlimit="10" stroke-dasharray="" stroke-dashoffset="0" font-family="none" font-weight="none" font-size="none" text-anchor="none" style="mix-blend-mode: normal"><g transform="translate(0,0) scale(10.66667,10.66667)"><path transform="translate(24,0) rotate(90)" d="M12.70711,4.29289c0.36048,0.36048 0.38821,0.92772 0.08319,1.32001l-0.08319,0.09421l-5.29211,5.29289h11.585c0.55228,0 1,0.44772 1,1c0,0.51284 -0.38604,0.93551 -0.88338,0.99327l-0.11662,0.00673h-11.585l5.29211,5.29289c0.36048,0.36048 0.38821,0.92771 0.08319,1.32001l-0.08319,0.09421c-0.36048,0.36048 -0.92771,0.38821 -1.32001,0.08319l-0.09421,-0.08319l-7,-7l-0.0732,-0.08166c-0.00232,-0.00289 -0.00462,-0.00579 -0.0069,-0.0087l0.08011,0.09036c-0.03539,-0.03539 -0.06758,-0.07278 -0.09656,-0.1118c-0.01784,-0.02418 -0.03462,-0.04903 -0.05027,-0.07465c-0.00746,-0.01205 -0.01457,-0.02427 -0.0214,-0.0366c-0.01088,-0.01977 -0.02129,-0.04017 -0.03102,-0.06096c-0.00797,-0.017 -0.01546,-0.0343 -0.02243,-0.05176c-0.00791,-0.01976 -0.0151,-0.03954 -0.02168,-0.0596c-0.00482,-0.01489 -0.00945,-0.03027 -0.0137,-0.04574c-0.00601,-0.02156 -0.01121,-0.04325 -0.01568,-0.0652c-0.00346,-0.01742 -0.00654,-0.03485 -0.00915,-0.05233c-0.00292,-0.01905 -0.00527,-0.03877 -0.00704,-0.05867c-0.00208,-0.02381 -0.00334,-0.04712 -0.00379,-0.07045c-0.00012,-0.00645 -0.00019,-0.01289 -0.00019,-0.01935l0.00017,-0.01836c0.00043,-0.02366 0.0017,-0.0473 0.0038,-0.07089l-0.00397,0.08925c0,-0.05062 0.00376,-0.10036 0.01102,-0.14896c0.00261,-0.01699 0.00568,-0.03441 0.00922,-0.05176c0.0044,-0.02202 0.00959,-0.04371 0.01548,-0.06511c0.00438,-0.01562 0.00901,-0.03101 0.01402,-0.0463c0.00638,-0.01966 0.01358,-0.03944 0.02137,-0.05892c0.00709,-0.01774 0.01458,-0.03504 0.02257,-0.05216c0.0097,-0.02067 0.02012,-0.04107 0.0312,-0.06106c0.00662,-0.01212 0.01373,-0.02434 0.02112,-0.03643c0.01572,-0.02557 0.03249,-0.05042 0.05032,-0.07445c0.0044,-0.00605 0.00886,-0.01191 0.01339,-0.01774c0.02796,-0.03557 0.05472,-0.06574 0.08319,-0.09421l7,-7c0.39052,-0.39052 1.02369,-0.39052 1.41421,0z"></path></g></g></svg>