<?xml version="1.0" standalone="no"?>
<!DOCTYPE svg PUBLIC "-//W3C//DTD SVG 20010904//EN"
 "http://www.w3.org/TR/2001/REC-SVG-20010904/DTD/svg10.dtd">
<svg version="1.0" xmlns="http://www.w3.org/2000/svg"
 width="1600.000000pt" height="1270.000000pt" viewBox="0 0 1600.000000 1270.000000"
 preserveAspectRatio="xMidYMid meet">

<g transform="translate(0.000000,1270.000000) scale(0.100000,-0.100000)"
fill="#000000" stroke="none">
<path d="M7809 12323 c-6 -16 -42 -147 -80 -293 -39 -146 -77 -287 -85 -315
-8 -28 -10 -51 -5 -53 34 -11 105 -70 130 -109 56 -84 63 -177 20 -279 -11
-28 -9 -42 11 -115 13 -46 28 -90 34 -96 9 -10 63 2 248 55 131 37 242 72 248
78 17 17 26 676 10 744 -47 203 -212 359 -420 396 -100 18 -99 18 -111 -13z"/>
<path d="M7635 12321 c-78 -21 -138 -42 -183 -65 -26 -14 -36 -14 -69 -2 -111
39 -202 27 -264 -35 -21 -21 -43 -56 -50 -77 -8 -29 -20 -44 -45 -55 -67 -32
-86 -103 -49 -182 11 -24 19 -64 19 -100 1 -69 19 -105 69 -135 45 -28 119
-26 180 4 l48 23 11 -21 c6 -11 19 -31 30 -42 l19 -22 60 31 c44 23 75 31 121
33 l61 3 19 68 c10 37 47 178 82 313 35 135 67 253 71 263 6 14 2 17 -26 16
-19 0 -65 -9 -104 -18z"/>
<path d="M7091 11408 c-13 -35 -34 -303 -27 -333 9 -35 58 -55 136 -55 53 0
61 2 58 18 -3 13 -17 18 -72 23 -67 6 -86 16 -86 49 0 8 7 79 15 158 8 79 13
148 10 153 -10 16 -25 10 -34 -13z"/>
<path d="M8163 11121 c-130 -38 -147 -48 -134 -70 8 -12 32 -7 145 24 154 44
161 47 153 69 -9 22 -23 20 -164 -23z"/>
<path d="M7760 10779 c-36 -31 -117 -66 -173 -74 -37 -6 -47 -11 -45 -24 6
-28 102 -19 173 16 77 40 100 63 82 87 -12 16 -14 16 -37 -5z"/>
<path d="M8190 10370 c-278 -25 -443 -71 -600 -166 -327 -197 -637 -525 -890
-939 -44 -72 -372 -722 -499 -990 -39 -83 -88 -185 -110 -228 -48 -94 -56 -95
154 8 91 45 185 101 240 142 109 81 282 252 354 348 108 145 201 376 201 500
0 56 18 86 38 63 14 -18 -1 -157 -27 -238 -11 -36 -21 -66 -21 -67 0 -2 10 -3
23 -3 40 0 179 -40 259 -75 108 -46 234 -131 326 -220 136 -129 257 -319 282
-441 10 -48 9 -58 -15 -119 -60 -149 -168 -307 -292 -426 -45 -43 -89 -79 -97
-79 -7 0 -16 -7 -20 -15 -15 -41 -291 -193 -466 -258 -243 -90 -595 -165 -860
-184 -90 -7 -90 -7 25 -43 88 -28 216 -87 320 -147 80 -47 390 -251 520 -344
173 -123 296 -201 304 -193 5 5 92 205 194 444 609 1429 792 1852 822 1906 70
125 193 263 315 354 93 70 262 147 385 176 61 15 115 28 121 30 16 4 28 211
21 354 -3 64 -15 151 -27 194 -48 187 -191 409 -329 510 -161 118 -390 170
-651 146z"/>
<path d="M2119 8939 c-17 -17 -20 -29 -15 -62 9 -68 144 -981 166 -1127 11
-74 25 -164 30 -200 5 -36 23 -155 39 -265 17 -110 40 -265 51 -345 22 -151
35 -186 73 -195 12 -3 288 -4 612 -3 l590 3 110 28 c143 35 341 54 705 67 162
6 326 13 363 16 l68 6 -3 52 -3 51 -276 6 c-151 3 -281 9 -288 13 -7 5 -142 7
-301 7 l-289 -2 -5 23 c-3 13 -9 43 -13 68 -6 32 -14 46 -27 48 -17 4 -18 -1
-10 -60 14 -116 38 -103 -201 -105 -154 -1 -226 -6 -270 -17 -76 -20 -143 -21
-166 0 -14 13 -58 15 -313 14 -163 0 -296 2 -296 6 0 3 -11 81 -25 172 -47
308 -84 556 -100 672 -22 153 -50 349 -80 545 -82 543 -77 497 -59 517 16 17
47 18 611 18 555 0 594 -1 611 -18 13 -13 24 -59 40 -172 72 -492 104 -704
117 -780 9 -47 24 -141 35 -209 10 -68 21 -125 23 -127 2 -3 11 -2 19 1 12 5
12 18 1 93 -43 294 -79 536 -109 745 -61 427 -74 501 -91 519 -15 17 -55 18
-660 18 -640 0 -643 0 -664 -21z"/>
<path d="M6654 8278 l-19 -23 23 19 c21 18 27 26 19 26 -2 0 -12 -10 -23 -22z"/>
<path d="M2901 8080 c0 -31 26 -161 34 -168 4 -4 5 7 2 23 -4 17 -9 53 -13 80
-6 50 -24 98 -23 65z"/>
<path d="M2850 7955 c0 -68 19 -122 56 -161 38 -41 65 -43 93 -8 28 36 28 123
1 179 -12 23 -18 29 -14 15 28 -113 28 -121 14 -147 -25 -43 -45 -50 -77 -27
-39 29 -57 70 -59 132 -3 68 -14 82 -14 17z"/>
<path d="M2710 7946 c0 -8 -8 -17 -17 -19 -14 -4 -12 -5 5 -6 16 -1 22 5 22
19 0 11 -2 20 -5 20 -3 0 -5 -6 -5 -14z"/>
<path d="M3134 7940 c1 -8 10 -16 21 -17 15 -1 15 0 3 3 -9 3 -19 11 -21 17
-2 7 -3 5 -3 -3z"/>
<path d="M4858 7673 c7 -3 16 -2 19 1 4 3 -2 6 -13 5 -11 0 -14 -3 -6 -6z"/>
<path d="M4858 7613 c7 -3 16 -2 19 1 4 3 -2 6 -13 5 -11 0 -14 -3 -6 -6z"/>
<path d="M4778 7603 c7 -3 16 -2 19 1 4 3 -2 6 -13 5 -11 0 -14 -3 -6 -6z"/>
<path d="M4328 7583 c6 -2 18 -2 25 0 6 3 1 5 -13 5 -14 0 -19 -2 -12 -5z"/>
<path d="M10568 4845 c-5 -308 -11 -840 -15 -1182 l-6 -623 90 0 91 0 6 123
c24 437 31 1356 16 1927 -6 250 -6 252 -9 90 -3 -144 -5 -158 -13 -111 -11 61
-29 86 -47 68 -8 -8 -15 -6 -26 9 -13 18 -14 15 -16 -31 l-2 -50 -7 40 -7 40
-2 -45 c-1 -29 -4 -40 -10 -32 -6 10 -10 8 -17 -10 -5 -15 -10 43 -14 162 -4
138 -7 44 -12 -375z m109 233 c-3 -8 -6 -5 -6 6 -1 11 2 17 5 13 3 -3 4 -12 1
-19z"/>
<path d="M11221 5384 c0 -11 3 -14 6 -6 3 7 2 16 -1 19 -3 4 -6 -2 -5 -13z"/>
<path d="M10351 5304 c0 -11 3 -14 6 -6 3 7 2 16 -1 19 -3 4 -6 -2 -5 -13z"/>
<path d="M11271 5304 c0 -11 3 -14 6 -6 3 7 2 16 -1 19 -3 4 -6 -2 -5 -13z"/>
<path d="M11052 5280 c0 -14 2 -19 5 -12 2 6 2 18 0 25 -3 6 -5 1 -5 -13z"/>
<path d="M11231 5264 c0 -11 3 -14 6 -6 3 7 2 16 -1 19 -3 4 -6 -2 -5 -13z"/>
<path d="M10351 5254 c0 -11 3 -14 6 -6 3 7 2 16 -1 19 -3 4 -6 -2 -5 -13z"/>
<path d="M10352 5210 c0 -14 2 -19 5 -12 2 6 2 18 0 25 -3 6 -5 1 -5 -13z"/>
<path d="M11282 5205 c0 -16 2 -22 5 -12 2 9 2 23 0 30 -3 6 -5 -1 -5 -18z"/>
<path d="M11063 5165 c0 -27 2 -38 4 -22 2 15 2 37 0 50 -2 12 -4 0 -4 -28z"/>
<path d="M11450 5205 c0 -5 5 -17 10 -25 5 -8 10 -10 10 -5 0 6 -5 17 -10 25
-5 8 -10 11 -10 5z"/>
<path d="M11243 5160 c0 -25 2 -35 4 -22 2 12 2 32 0 45 -2 12 -4 2 -4 -23z"/>
<path d="M11402 5160 c0 -14 2 -19 5 -12 2 6 2 18 0 25 -3 6 -5 1 -5 -13z"/>
<path d="M11581 5154 c0 -11 3 -14 6 -6 3 7 2 16 -1 19 -3 4 -6 -2 -5 -13z"/>
<path d="M10512 5133 c-7 -10 -10 -12 -7 -5 5 9 -8 12 -45 12 -32 0 -49 -4
-45 -10 3 -5 1 -10 -5 -10 -7 0 -10 -7 -6 -15 4 -11 -1 -15 -19 -15 -22 0 -25
-4 -27 -42 l-1 -43 -6 50 c-9 74 -26 -305 -47 -1078 -4 -136 -9 -245 -12 -243
-2 3 -25 67 -50 143 -24 76 -51 142 -58 146 -8 4 -14 13 -14 20 0 8 4 6 11 -3
9 -12 10 -12 5 3 -3 10 -6 22 -6 27 0 4 -24 7 -52 6 -52 -1 -53 -1 -51 -31 2
-25 1 -27 -6 -10 -5 11 -7 31 -4 45 4 20 3 22 -7 10 -9 -12 -11 -10 -7 12 2
15 1 25 -3 23 -4 -2 -13 14 -19 36 -7 23 -14 39 -16 37 -7 -7 78 -277 86 -272
5 3 6 -1 3 -9 -4 -12 68 -263 222 -764 l35 -113 78 0 79 0 7 893 c8 1048 6
1225 -13 1200z"/>
<path d="M11394 4850 l-50 -300 18 -192 c10 -106 31 -330 48 -498 16 -168 40
-414 52 -547 12 -134 25 -243 28 -243 3 0 25 82 49 183 24 100 65 272 92 382
99 413 267 1131 271 1161 4 27 1 30 -24 32 -27 2 -28 0 -29 -40 0 -24 -3 -37
-6 -30 -2 7 -22 12 -44 12 -34 0 -39 3 -40 23 0 12 -9 -9 -20 -48 -10 -38 -17
-81 -14 -95 4 -16 2 -20 -3 -12 -5 8 -31 -81 -68 -238 -32 -137 -62 -250 -65
-250 -4 0 -10 35 -14 78 -4 42 -17 171 -30 285 -23 207 -23 208 -5 325 25 160
32 232 21 207 -7 -14 -10 -15 -10 -5 -2 39 -81 65 -104 35 -4 -5 -4 9 -1 33 4
23 5 42 2 42 -2 0 -27 -135 -54 -300z m52 165 c-3 -20 -16 -31 -16 -13 0 13 8
28 16 28 1 0 1 -7 0 -15z m435 -222 c-12 -20 -14 -14 -5 12 4 9 9 14 11 11 3
-2 0 -13 -6 -23z m-129 -75 c-7 -7 -12 -8 -12 -2 0 14 12 26 19 19 2 -3 -1
-11 -7 -17z"/>
<path d="M11291 5130 c-1 -12 17 -199 40 -435 1 -14 68 406 68 425 0 8 -6 -3
-14 -25 -7 -22 -13 -32 -14 -22 -2 28 -21 19 -21 -10 l-1 -28 -14 30 -15 30 5
-35 c2 -19 0 -42 -5 -50 -7 -11 -10 -6 -10 20 -1 38 -17 125 -19 100z"/>
<path d="M10601 5114 c0 -11 3 -14 6 -6 3 7 2 16 -1 19 -3 4 -6 -2 -5 -13z"/>
<path d="M11572 5095 c0 -16 2 -22 5 -12 2 9 2 23 0 30 -3 6 -5 -1 -5 -18z"/>
<path d="M11071 5045 c0 -38 4 -131 9 -205 9 -114 8 -148 -5 -210 -63 -298
-295 -1540 -295 -1579 0 -7 48 -11 145 -11 80 0 145 4 145 8 0 5 7 49 15 98 8
49 29 175 45 279 29 180 41 254 110 680 16 99 38 240 50 312 l21 133 -26 262
c-14 145 -28 268 -30 273 -2 6 -4 -10 -6 -35 -1 -31 -3 -37 -6 -17 -2 15 -9
27 -14 27 -5 0 -19 9 -31 20 -31 28 -42 25 -58 -15 -15 -39 -30 -46 -30 -15 0
22 -19 28 -21 8 -1 -7 -5 3 -9 22 -6 28 -8 22 -9 -35z"/>
<path d="M12197 4919 c4 -13 8 -18 11 -10 2 7 -1 18 -6 23 -8 8 -9 4 -5 -13z"/>
<path d="M12192 4860 c0 -14 2 -19 5 -12 2 6 2 18 0 25 -3 6 -5 1 -5 -13z"/>
<path d="M12116 4720 c-3 -74 -9 -187 -12 -250 -4 -63 -4 -113 -1 -110 7 7 88
452 83 457 -2 2 -7 -15 -11 -38 -4 -24 -10 -37 -15 -30 -4 7 -5 22 -3 34 2 12
0 33 -6 47 -8 22 -10 22 -11 5 -1 -20 -2 -20 -9 0 -5 11 -11 -35 -15 -115z"/>
<path d="M11312 4350 c-7 -36 -37 -216 -67 -400 -30 -184 -75 -460 -100 -612
-25 -153 -45 -282 -45 -288 0 -6 66 -10 181 -10 l180 0 -5 43 c-4 23 -13 112
-21 197 -23 238 -73 755 -93 955 l-18 180 -12 -65z"/>
<path d="M11821 4293 c-13 -54 -54 -225 -92 -381 -38 -156 -83 -340 -100 -410
-90 -372 -109 -454 -109 -458 0 -2 97 -4 215 -4 l215 0 16 38 c129 306 243
602 238 618 -4 14 -3 15 4 6 7 -11 12 -7 20 15 5 15 13 37 18 48 7 19 7 19
-13 3 -24 -22 -30 -22 -49 -3 -9 8 -19 15 -23 15 -4 0 -29 -45 -56 -100 -27
-55 -52 -100 -55 -100 -3 0 -4 33 -3 72 1 59 0 65 -7 33 -7 -39 -14 -32 -11
12 2 13 -4 23 -16 25 -23 5 -62 -55 -64 -97 -2 -29 -2 -29 -8 5 -4 23 -13 -40
-25 -183 -14 -152 -25 -229 -37 -255 -16 -33 -17 -34 -18 -12 -1 13 8 132 20
263 11 131 18 248 16 260 -2 12 -5 2 -6 -22 0 -24 -4 -41 -8 -38 -3 4 -6 23
-5 42 1 32 -1 35 -28 35 -28 0 -30 -3 -30 -36 0 -23 -4 -33 -11 -28 -6 3 -9
17 -6 30 2 12 0 29 -4 36 -6 8 -9 -4 -9 -32 0 -25 -5 -52 -11 -60 -7 -11 -9
-4 -4 25 3 22 12 117 20 210 17 196 41 421 51 483 12 74 -1 45 -25 -55z"/>
<path d="M9961 4204 c0 -11 3 -14 6 -6 3 7 2 16 -1 19 -3 4 -6 -2 -5 -13z"/>
<path d="M6509 4093 c-584 -1265 -744 -1610 -754 -1618 -6 -5 -12 -17 -12 -25
0 -8 -85 -197 -188 -420 -103 -223 -214 -461 -245 -530 -32 -69 -56 -128 -53
-132 14 -24 36 9 104 160 43 92 154 335 249 540 l173 372 1068 0 c606 0 1069
-4 1069 -9 0 -5 -108 -242 -240 -527 -132 -285 -240 -524 -240 -531 0 -56 52
41 250 470 288 622 273 591 291 595 11 2 80 -139 264 -538 184 -397 254 -539
265 -537 8 2 14 10 12 18 -2 8 -45 104 -97 214 -270 584 -385 833 -385 838 0
4 448 7 996 7 792 0 995 3 992 13 -4 9 -216 13 -1006 15 -988 2 -1001 2 -1012
22 -11 21 -11 21 578 1293 153 330 177 388 159 385 -17 -2 -88 -149 -391 -805
-204 -441 -374 -799 -378 -795 -4 4 -78 162 -166 352 -132 284 -270 583 -559
1208 -14 28 -31 52 -39 52 -8 0 -14 -5 -14 -11 0 -6 54 -126 119 -267 622
-1342 642 -1387 632 -1409 l-10 -22 -1065 -1 c-586 0 -1067 3 -1069 7 -2 5 50
125 117 268 66 144 135 292 153 330 17 39 65 142 106 230 263 567 397 858 397
866 0 5 -7 9 -15 9 -9 0 -31 -34 -56 -87z"/>
<path d="M9973 4160 c2 -14 8 -34 15 -45 15 -27 14 -8 -3 35 -11 27 -14 30
-12 10z"/>
<path d="M9388 4152 c27 -70 528 -1142 533 -1142 28 0 -10 93 -243 595 -205
443 -265 565 -279 565 -14 0 -17 -5 -11 -18z"/>
<path d="M9851 4145 c1 -19 18 -51 18 -35 0 8 -4 22 -9 30 -5 8 -9 11 -9 5z"/>
<path d="M9871 4085 c0 -19 35 -136 39 -131 3 2 6 -10 7 -27 1 -18 50 -198
108 -402 59 -203 114 -396 123 -427 l16 -58 84 0 c63 0 83 3 79 13 -2 6 -68
219 -146 472 -78 253 -149 478 -157 500 -12 34 -13 35 -10 10 3 -17 0 -37 -5
-45 -7 -12 -9 -11 -7 5 4 50 0 55 -46 55 -26 0 -46 -5 -49 -12 -3 -7 -12 3
-20 22 -9 19 -16 31 -16 25z m167 -140 c-3 -3 -9 2 -12 12 -6 14 -5 15 5 6 7
-7 10 -15 7 -18z"/>
<path d="M9960 4074 c0 -20 42 -15 47 6 4 13 3 13 -6 0 -7 -10 -11 -11 -11 -2
0 6 -7 12 -15 12 -8 0 -15 -7 -15 -16z"/>
<path d="M11961 3934 c0 -11 3 -14 6 -6 3 7 2 16 -1 19 -3 4 -6 -2 -5 -13z"/>
<path d="M11911 3904 c0 -11 3 -14 6 -6 3 7 2 16 -1 19 -3 4 -6 -2 -5 -13z"/>
<path d="M11953 3830 c0 -25 2 -35 4 -22 2 12 2 32 0 45 -2 12 -4 2 -4 -23z"/>
<path d="M12053 3805 c0 -27 2 -38 4 -22 2 15 2 37 0 50 -2 12 -4 0 -4 -28z"/>
<path d="M11903 3775 c0 -27 2 -38 4 -22 2 15 2 37 0 50 -2 12 -4 0 -4 -28z"/>
<path d="M12165 3809 c-4 -6 -5 -12 -2 -15 2 -3 7 2 10 11 7 17 1 20 -8 4z"/>
<path d="M12255 3809 c-4 -6 -5 -12 -2 -15 2 -3 7 2 10 11 7 17 1 20 -8 4z"/>
<path d="M12296 3795 c-9 -26 -7 -32 5 -12 6 10 9 21 6 23 -2 3 -7 -2 -11 -11z"/>
<path d="M12330 3761 c0 -6 -7 -7 -17 -4 -9 4 -14 2 -11 -3 4 -5 0 -20 -8 -34
-15 -25 -15 -25 -9 10 11 64 6 52 -289 -653 l-15 -38 75 3 76 3 34 90 c35 91
127 347 183 509 18 49 30 94 27 100 -2 6 -5 3 -5 -7 -1 -10 -5 -16 -10 -13 -5
4 -12 0 -15 -6 -3 -7 -4 -1 -2 15 2 15 -1 30 -5 33 -5 3 -9 1 -9 -5z"/>
<path d="M11943 3715 c0 -27 2 -38 4 -22 2 15 2 37 0 50 -2 12 -4 0 -4 -28z"/>
<path d="M4884 2600 c0 -102 2 -143 3 -92 2 50 2 134 0 185 -1 50 -3 9 -3 -93z"/>
<path d="M4343 2393 c104 -2 270 -2 370 0 100 1 16 2 -188 2 -203 0 -285 -1
-182 -2z"/>
<path d="M305 2350 c-4 -7 -3 -15 2 -19 12 -8 651 -409 1068 -670 207 -130
323 -197 329 -191 7 7 5 15 -4 24 -16 15 -1355 855 -1375 862 -7 3 -16 0 -20
-6z"/>
<path d="M987 2303 c-7 -12 28 -192 40 -204 21 -21 22 10 5 106 -16 88 -31
121 -45 98z"/>
<path d="M1140 2233 c0 -33 32 -188 41 -197 24 -25 20 70 -8 192 -6 25 -33 30
-33 5z"/>
<path d="M4020 1944 c0 -18 186 -244 200 -244 26 0 15 26 -37 87 -156 185
-163 192 -163 157z"/>
<path d="M3846 1891 c-8 -12 195 -252 208 -248 22 7 9 28 -87 141 -95 113
-110 126 -121 107z"/>
<path d="M2924 1499 c-3 -6 -2 -15 3 -20 5 -5 408 -8 999 -7 871 3 989 5 989
18 0 13 -118 15 -992 18 -709 1 -994 -1 -999 -9z"/>
</g>
</svg>
