<svg xmlns="http://www.w3.org/2000/svg" viewBox="0 0 50 50" width="50" height="50" preserveAspectRatio="xMidYMid meet" style="width: 100%; height: 100%; transform: translate3d(0px, 0px, 0px);"><defs><clipPath id="__le_271b96e"><rect width="50" height="50" x="0" y="0"/></clipPath><clipPath id="__le_288f808"><path d="M0,0 L500,0 L500,500 L0,500z"/></clipPath></defs><g clip-path="url(#__le_271b96e)"><g clip-path="url(#__le_288f808)" transform="matrix(0.10000000149011612,0,0,0.10000000149011612,0,0)" opacity="1" style="display: block;"><g transform="matrix(1,0,0,1,250,250)" opacity="1" style="display: block;"><g opacity="1" transform="matrix(1,0,0,1,0,0)"><path fill="rgb(0,29,47)" fill-opacity="1" d=" M-7.736999988555908,-186.00999450683594 C-7.736999988555908,-186.00999450683594 -132.73699951171875,-136.00999450683594 -132.73699951171875,-136.00999450683594 C-140.64700317382812,-132.8459930419922 -145.83299255371094,-125.18599700927734 -145.83299255371094,-116.66699981689453 C-145.83299255371094,-116.66699981689453 -145.83299255371094,0 -145.83299255371094,0 C-145.83299255371094,50.5620002746582 -119.59400177001953,96.04299926757812 -76.71499633789062,136.06399536132812 C-62.152000427246094,149.656005859375 -46.624000549316406,161.6649932861328 -31.08799934387207,172.02200317382812 C-31.08799934387207,172.02200317382812 -24.43000030517578,176.36300659179688 -24.43000030517578,176.36300659179688 C-18.17300033569336,180.34800720214844 -13.161999702453613,183.25799560546875 -9.803999900817871,185.0489959716797 C-3.677000045776367,188.31700134277344 3.677000045776367,188.31700134277344 9.803999900817871,185.0489959716797 C9.803999900817871,185.0489959716797 13.697999954223633,182.88699340820312 13.697999954223633,182.88699340820312 C18.113000869750977,180.35499572753906 24.042999267578125,176.71800231933594 31.086999893188477,172.02200317382812 C46.62300109863281,161.6649932861328 62.152000427246094,149.656005859375 76.71499633789062,136.06399536132812 C119.59400177001953,96.04299926757812 145.83299255371094,50.5620002746582 145.83299255371094,0 C145.83299255371094,0 145.83299255371094,-116.66699981689453 145.83299255371094,-116.66699981689453 C145.83299255371094,-125.18599700927734 140.64700317382812,-132.8459930419922 132.73699951171875,-136.00999450683594 C132.73699951171875,-136.00999450683594 7.736999988555908,-186.00999450683594 7.736999988555908,-186.00999450683594 C2.7699999809265137,-187.9969940185547 -2.7699999809265137,-187.9969940185547 -7.736999988555908,-186.00999450683594z M0,-144.22900390625 C0,-144.22900390625 104.16699981689453,-102.56199645996094 104.16699981689453,-102.56199645996094 C104.16699981689453,-102.56199645996094 104.16699981689453,0 104.16699981689453,0 C104.16699981689453,36.9379997253418 83.53099822998047,72.70700073242188 48.28499984741211,105.60299682617188 C35.505001068115234,117.53099822998047 21.736000061035156,128.1790008544922 7.974999904632568,137.35299682617188 C7.974999904632568,137.35299682617188 2.2119998931884766,141.11300659179688 2.2119998931884766,141.11300659179688 C2.2119998931884766,141.11300659179688 0,142.5 0,142.5 C0,142.5 -2.2119998931884766,141.11300659179688 -2.2119998931884766,141.11300659179688 C-4.001999855041504,139.9709930419922 -5.927999973297119,138.7169952392578 -7.974999904632568,137.35299682617188 C-21.736000061035156,128.1790008544922 -35.505001068115234,117.53099822998047 -48.28499984741211,105.60299682617188 C-48.28499984741211,105.60299682617188 -53.220001220703125,100.88400268554688 -53.220001220703125,100.88400268554688 C-85.4489974975586,69.2979965209961 -104.16699981689453,35.17900085449219 -104.16699981689453,0 C-104.16699981689453,0 -104.16699981689453,-102.58300018310547 -104.16699981689453,-102.58300018310547 C-104.16699981689453,-102.58300018310547 0,-144.22900390625 0,-144.22900390625z"/></g></g></g></g></svg>