<svg xmlns="http://www.w3.org/2000/svg" viewBox="0 0 50 50" width="50" height="50" preserveAspectRatio="xMidYMid meet" style="width: 100%; height: 100%; transform: translate3d(0px, 0px, 0px);"><defs><clipPath id="__le_2cde902"><rect width="50" height="50" x="0" y="0"/></clipPath><clipPath id="__le_288ce0c"><path d="M0,0 L500,0 L500,500 L0,500z"/></clipPath></defs><g clip-path="url(#__le_2cde902)"><g clip-path="url(#__le_288ce0c)" transform="matrix(0.10000000149011612,0,0,0.10000000149011612,0,0)" opacity="1" style="display: block;"><g transform="matrix(1,0,0,1,0,0)" opacity="1" style="display: block;"><g opacity="1" transform="matrix(1,0,0,1,250.48599243164062,373.9129943847656)"><path fill="rgb(0,29,46)" fill-opacity="1" d=" M140.3990020751953,-60.79600143432617 C150.76600646972656,-63.37699890136719 161.25399780273438,-57.70000076293945 164.9250030517578,-47.9379997253418 C164.9250030517578,-47.9379997253418 165.6479949951172,-45.612998962402344 165.6479949951172,-45.612998962402344 C165.6479949951172,-45.612998962402344 186.39700317382812,37.720001220703125 186.39700317382812,37.720001220703125 C189.4770050048828,50.090999603271484 180.85000610351562,62.0890007019043 168.53199768066406,63.457000732421875 C168.53199768066406,63.457000732421875 166.18099975585938,63.58700180053711 166.18099975585938,63.58700180053711 C166.18099975585938,63.58700180053711 -167.15199279785156,63.58700180053711 -167.15199279785156,63.58700180053711 C-179.91600036621094,63.58700180053711 -189.4770050048828,52.29199981689453 -187.80599975585938,39.99700164794922 C-187.80599975585938,39.99700164794922 -187.35899353027344,37.68299865722656 -187.35899353027344,37.68299865722656 C-187.35899353027344,37.68299865722656 -166.4459991455078,-45.650001525878906 -166.4459991455078,-45.650001525878906 C-163.64500427246094,-56.81100082397461 -152.3280029296875,-63.58700180053711 -141.16799926757812,-60.7859992980957 C-130.80499267578125,-58.18600082397461 -124.22200012207031,-48.242000579833984 -125.5770034790039,-37.900001525878906 C-125.5770034790039,-37.900001525878906 -126.03199768066406,-35.50899887084961 -126.03199768066406,-35.50899887084961 C-126.03199768066406,-35.50899887084961 -140.46499633789062,21.920000076293945 -140.46499633789062,21.920000076293945 C-140.46499633789062,21.920000076293945 139.51400756835938,21.920000076293945 139.51400756835938,21.920000076293945 C139.51400756835938,21.920000076293945 125.21600341796875,-35.54600143432617 125.21600341796875,-35.54600143432617 C122.63400268554688,-45.91400146484375 128.31100463867188,-56.4010009765625 138.0749969482422,-60.073001861572266 C138.0749969482422,-60.073001861572266 140.3990020751953,-60.79600143432617 140.3990020751953,-60.79600143432617z"/></g><g opacity="1" transform="matrix(1,0,0,1,250,208.33299255371094)"><path fill="rgb(0,29,46)" fill-opacity="1" d=" M0,-145.83299255371094 C103.55400085449219,-145.83299255371094 187.5,-61.88600158691406 187.5,41.66699981689453 C187.5,67.9469985961914 177.22000122070312,107.0999984741211 164.80799865722656,133.78500366210938 C161.77099609375,140.3159942626953 155.61000061035156,144.75599670410156 148.58799743652344,145.66099548339844 C148.58799743652344,145.66099548339844 145.91799926757812,145.83299255371094 145.91799926757812,145.83299255371094 C145.91799926757812,145.83299255371094 38.46200180053711,145.83299255371094 38.46200180053711,145.83299255371094 C26.95599937438965,145.83299255371094 17.628000259399414,136.50599670410156 17.628000259399414,125 C17.628000259399414,114.31600189208984 25.67099952697754,105.51000213623047 36.03200149536133,104.30699920654297 C36.03200149536133,104.30699920654297 38.46200180053711,104.16699981689453 38.46200180053711,104.16699981689453 C38.46200180053711,104.16699981689453 132.02099609375,104.16699981689453 132.02099609375,104.16699981689453 C132.02099609375,104.16699981689453 133.68099975585938,99.7030029296875 133.68099975585938,99.7030029296875 C139.947998046875,81.93299865722656 144.77699279785156,61.33399963378906 145.68099975585938,46.41699981689453 C145.68099975585938,46.41699981689453 145.83299255371094,41.66699981689453 145.83299255371094,41.66699981689453 C145.83299255371094,-38.875 80.54199981689453,-104.16600036621094 0,-104.16600036621094 C-80.54199981689453,-104.16600036621094 -145.83299255371094,-38.875 -145.83299255371094,41.66699981689453 C-145.83299255371094,55.470001220703125 -140.02099609375,80.06900024414062 -132.79400634765625,100.83499908447266 C-132.79400634765625,100.83499908447266 -131.60400390625,104.16699981689453 -131.60400390625,104.16699981689453 C-131.60400390625,104.16699981689453 -33.72200012207031,104.16699981689453 -33.72200012207031,104.16699981689453 C-23.038000106811523,104.16699981689453 -14.232000350952148,112.20999908447266 -13.029000282287598,122.56999969482422 C-13.029000282287598,122.56999969482422 -12.888999938964844,125 -12.888999938964844,125 C-12.888999938964844,135.68499755859375 -20.930999755859375,144.49000549316406 -31.29199981689453,145.6929931640625 C-31.29199981689453,145.6929931640625 -33.72200012207031,145.83299255371094 -33.72200012207031,145.83299255371094 C-33.72200012207031,145.83299255371094 -145.7530059814453,145.83299255371094 -145.7530059814453,145.83299255371094 C-154.0399932861328,145.83299255371094 -161.53799438476562,140.92300415039062 -164.85000610351562,133.32699584960938 C-176.6999969482422,106.15299987792969 -187.5,65.94499969482422 -187.5,41.66699981689453 C-187.5,-61.88600158691406 -103.5530014038086,-145.83299255371094 0,-145.83299255371094z"/></g><g opacity="1" transform="matrix(1,0,0,1,250,306.0899963378906)"><path fill="rgb(0,29,46)" fill-opacity="1" d=" M0,-59.29499816894531 C-32.74800109863281,-59.29499816894531 -59.29499816894531,-32.74800109863281 -59.29499816894531,0 C-59.29499816894531,32.74800109863281 -32.74800109863281,59.29499816894531 0,59.29499816894531 C32.74800109863281,59.29499816894531 59.29499816894531,32.74800109863281 59.29499816894531,0 C59.29499816894531,-32.74800109863281 32.74800109863281,-59.29499816894531 0,-59.29499816894531z M0,-17.628000259399414 C9.734999656677246,-17.628000259399414 17.628000259399414,-9.736000061035156 17.628000259399414,0 C17.628000259399414,9.734999656677246 9.734999656677246,17.628000259399414 0,17.628000259399414 C-9.736000061035156,17.628000259399414 -17.628000259399414,9.734999656677246 -17.628000259399414,0 C-17.628000259399414,-9.736000061035156 -9.736000061035156,-17.628000259399414 0,-17.628000259399414z"/></g><g opacity="1" transform="matrix(1,0,0,1,147.0469970703125,147.0469970703125)"><path fill="rgb(0,29,46)" fill-opacity="1" d=" M21.5310001373291,-7.933000087738037 C29.66699981689453,0.2029999941587448 29.66699981689453,13.395000457763672 21.5310001373291,21.5310001373291 C13.97599983215332,29.086000442504883 2.062000036239624,29.624000549316406 -6.116000175476074,23.14900016784668 C-6.116000175476074,23.14900016784668 -7.933000087738037,21.5310001373291 -7.933000087738037,21.5310001373291 C-7.933000087738037,21.5310001373291 -21.5310001373291,7.933000087738037 -21.5310001373291,7.933000087738037 C-29.66699981689453,-0.2029999941587448 -29.66699981689453,-13.395000457763672 -21.5310001373291,-21.5310001373291 C-13.97599983215332,-29.086000442504883 -2.062000036239624,-29.624000549316406 6.114999771118164,-23.14900016784668 C6.114999771118164,-23.14900016784668 7.932000160217285,-21.5310001373291 7.932000160217285,-21.5310001373291 C7.932000160217285,-21.5310001373291 21.5310001373291,-7.933000087738037 21.5310001373291,-7.933000087738037z"/></g><g opacity="1" transform="matrix(1,0,0,1,352.9530029296875,147.0469970703125)"><path fill="rgb(0,29,46)" fill-opacity="1" d=" M21.5310001373291,7.932000160217285 C29.66699981689453,-0.20399999618530273 29.66699981689453,-13.395000457763672 21.5310001373291,-21.5310001373291 C13.97599983215332,-29.086000442504883 2.062000036239624,-29.625 -6.116000175476074,-23.149999618530273 C-6.116000175476074,-23.149999618530273 -7.932000160217285,-21.5310001373291 -7.932000160217285,-21.5310001373291 C-7.932000160217285,-21.5310001373291 -21.530000686645508,-7.933000087738037 -21.530000686645508,-7.933000087738037 C-29.666000366210938,0.2029999941587448 -29.666000366210938,13.395000457763672 -21.530000686645508,21.5310001373291 C-13.975000381469727,29.086000442504883 -2.062000036239624,29.624000549316406 6.116000175476074,23.14900016784668 C6.116000175476074,23.14900016784668 7.931000232696533,21.5310001373291 7.931000232696533,21.5310001373291 C7.931000232696533,21.5310001373291 21.5310001373291,7.932000160217285 21.5310001373291,7.932000160217285z"/></g><g opacity="1" transform="matrix(1,0,0,1,250,105.76899719238281)"><path fill="rgb(0,29,46)" fill-opacity="1" d=" M0,-30.448999404907227 C10.684000015258789,-30.448999404907227 19.48900032043457,-22.4060001373291 20.69300079345703,-12.043999671936035 C20.69300079345703,-12.043999671936035 20.83300018310547,-9.614999771118164 20.83300018310547,-9.614999771118164 C20.83300018310547,-9.614999771118164 20.83300018310547,9.616000175476074 20.83300018310547,9.616000175476074 C20.83300018310547,21.121999740600586 11.505999565124512,30.448999404907227 0,30.448999404907227 C-10.684000015258789,30.448999404907227 -19.489999771118164,22.406999588012695 -20.69300079345703,12.045999526977539 C-20.69300079345703,12.045999526977539 -20.83300018310547,9.616000175476074 -20.83300018310547,9.616000175476074 C-20.83300018310547,9.616000175476074 -20.83300018310547,-9.614999771118164 -20.83300018310547,-9.614999771118164 C-20.83300018310547,-21.1200008392334 -11.505999565124512,-30.448999404907227 0,-30.448999404907227z"/></g><g opacity="1" transform="matrix(1,0,0,1,105.76899719238281,250)"><path fill="rgb(0,29,46)" fill-opacity="1" d=" M9.616000175476074,-20.83300018310547 C21.121999740600586,-20.83300018310547 30.448999404907227,-11.505000114440918 30.448999404907227,0 C30.448999404907227,10.684000015258789 22.406999588012695,19.489999771118164 12.045999526977539,20.694000244140625 C12.045999526977539,20.694000244140625 9.616000175476074,20.83300018310547 9.616000175476074,20.83300018310547 C9.616000175476074,20.83300018310547 -9.616000175476074,20.83300018310547 -9.616000175476074,20.83300018310547 C-21.121999740600586,20.83300018310547 -30.448999404907227,11.505999565124512 -30.448999404907227,0 C-30.448999404907227,-10.684000015258789 -22.406999588012695,-19.48900032043457 -12.045999526977539,-20.69300079345703 C-12.045999526977539,-20.69300079345703 -9.616000175476074,-20.83300018310547 -9.616000175476074,-20.83300018310547 C-9.616000175476074,-20.83300018310547 9.616000175476074,-20.83300018310547 9.616000175476074,-20.83300018310547z"/></g><g opacity="1" transform="matrix(1,0,0,1,394.2309875488281,250)"><path fill="rgb(0,29,46)" fill-opacity="1" d=" M9.614999771118164,-20.83300018310547 C21.121999740600586,-20.83300018310547 30.447999954223633,-11.505000114440918 30.447999954223633,0 C30.447999954223633,10.684000015258789 22.405000686645508,19.489999771118164 12.043999671936035,20.694000244140625 C12.043999671936035,20.694000244140625 9.614999771118164,20.83300018310547 9.614999771118164,20.83300018310547 C9.614999771118164,20.83300018310547 -9.616000175476074,20.83300018310547 -9.616000175476074,20.83300018310547 C-21.121999740600586,20.83300018310547 -30.448999404907227,11.505999565124512 -30.448999404907227,0 C-30.448999404907227,-10.684000015258789 -22.406999588012695,-19.48900032043457 -12.045999526977539,-20.69300079345703 C-12.045999526977539,-20.69300079345703 -9.616000175476074,-20.83300018310547 -9.616000175476074,-20.83300018310547 C-9.616000175476074,-20.83300018310547 9.614999771118164,-20.83300018310547 9.614999771118164,-20.83300018310547z"/></g></g><g transform="matrix(0.8987940549850464,0.4383711516857147,-0.4383711516857147,0.8987940549850464,159.77183532714844,-78.5478515625)" opacity="1" style="display: block;"><g opacity="1" transform="matrix(1,0,0,1,262.2550048828125,227.2480010986328)"><path fill="rgb(0,29,46)" fill-opacity="1" d=" M-13.48799991607666,-40.44900131225586 C-11.331000328063965,-51.750999450683594 -0.41999998688697815,-59.16400146484375 10.881999969482422,-57.00699996948242 C21.37700080871582,-55.00299835205078 28.51799964904785,-45.45199966430664 27.757999420166016,-35.04899978637695 C27.757999420166016,-35.04899978637695 27.43899917602539,-32.637001037597656 27.43899917602539,-32.637001037597656 C27.43899917602539,-32.637001037597656 13.48799991607666,40.45000076293945 13.48799991607666,40.45000076293945 C11.331000328063965,51.75199890136719 0.41999998688697815,59.165000915527344 -10.881999969482422,57.007999420166016 C-21.37700080871582,55.00400161743164 -28.51799964904785,45.452999114990234 -27.757999420166016,35.05099868774414 C-27.757999420166016,35.05099868774414 -27.440000534057617,32.63800048828125 -27.440000534057617,32.63800048828125 C-27.440000534057617,32.63800048828125 -13.48799991607666,-40.44900131225586 -13.48799991607666,-40.44900131225586z"/></g></g></g></g></svg>