<?xml version="1.0" standalone="no"?>
<!DOCTYPE svg PUBLIC "-//W3C//DTD SVG 20010904//EN"
 "http://www.w3.org/TR/2001/REC-SVG-20010904/DTD/svg10.dtd">
<svg version="1.0" xmlns="http://www.w3.org/2000/svg"
 width="328.000000pt" height="208.000000pt" viewBox="0 0 328.000000 208.000000"
 preserveAspectRatio="xMidYMid meet">

<g transform="translate(0.000000,208.000000) scale(0.100000,-0.100000)"
fill="#000000" stroke="none">
<path d="M430 1045 l0 -335 360 0 360 0 0 319 c0 176 3 326 6 335 6 14 -30 16
-360 16 l-366 0 0 -335z m406 240 c58 -17 107 -65 112 -108 2 -16 -6 -48 -18
-72 l-21 -44 36 -33 c48 -44 59 -108 26 -161 -36 -59 -98 -78 -239 -75 l-117
3 -3 244 c-2 189 1 246 10 253 22 13 161 9 214 -7z"/>
<path d="M710 1149 l0 -62 50 5 c59 6 80 21 80 59 0 37 -33 59 -87 59 l-43 0
0 -61z"/>
<path d="M710 939 l0 -61 76 4 c80 4 104 18 104 60 0 39 -35 58 -110 58 l-70
0 0 -61z"/>
<path d="M1280 1045 l0 -335 360 0 360 0 0 335 0 335 -360 0 -360 0 0 -335z
m434 230 c46 -22 76 -67 76 -115 0 -32 -20 -76 -42 -91 -5 -3 9 -16 29 -30 44
-28 70 -88 59 -134 -10 -40 -65 -91 -111 -104 -22 -6 -91 -11 -152 -11 l-113
0 0 248 c0 137 3 252 8 256 14 15 205 0 246 -19z"/>
<path d="M1560 1150 l0 -60 35 0 c67 0 109 39 91 85 -7 20 -48 35 -92 35 l-34
0 0 -60z"/>
<path d="M1562 943 l3 -58 49 -3 c67 -4 93 3 112 34 14 20 15 30 5 50 -6 14
-16 22 -21 19 -6 -3 -10 -1 -10 4 0 7 -28 11 -70 11 l-71 0 3 -57z"/>
<path d="M2120 1045 l0 -335 365 0 365 0 0 335 0 335 -365 0 -365 0 0 -335z
m524 235 l66 -21 0 -50 c0 -45 -2 -50 -17 -44 -117 51 -213 59 -277 22 -57
-32 -79 -67 -84 -134 -3 -52 -1 -62 28 -101 18 -25 47 -50 68 -59 39 -16 142
-20 164 -7 7 5 21 10 31 11 10 2 31 10 47 18 16 8 31 15 35 15 3 0 5 -22 5
-50 0 -48 -1 -50 -37 -66 -52 -22 -182 -30 -251 -14 -184 41 -258 274 -129
408 32 34 89 68 137 83 48 14 147 9 214 -11z"/>
</g>
</svg>
