<?xml version="1.0" standalone="no"?>
<!DOCTYPE svg PUBLIC "-//W3C//DTD SVG 20010904//EN"
 "http://www.w3.org/TR/2001/REC-SVG-20010904/DTD/svg10.dtd">
<svg version="1.0" xmlns="http://www.w3.org/2000/svg"
 width="328.000000pt" height="208.000000pt" viewBox="0 0 328.000000 208.000000"
 preserveAspectRatio="xMidYMid meet">

<g transform="translate(0.000000,208.000000) scale(0.100000,-0.100000)"
fill="#000000" stroke="none">
<path d="M2522 1261 c2 -95 7 -146 14 -148 7 -2 14 15 17 42 9 61 50 138 89
168 42 32 115 54 129 40 15 -15 12 -531 -3 -575 -14 -40 -38 -59 -92 -74 -23
-6 -41 -15 -41 -20 0 -13 476 -17 488 -5 7 7 5 12 -4 14 -143 39 -139 27 -139
385 0 219 3 282 13 282 34 0 91 -24 123 -52 41 -36 61 -72 84 -147 29 -99 40
-77 40 83 l0 146 -360 2 -361 3 3 -144z"/>
<path d="M150 1372 c-102 -51 -114 -92 -108 -379 3 -175 4 -180 30 -220 17
-25 45 -49 75 -64 47 -23 56 -24 333 -27 l285 -3 -3 153 c-2 84 -6 155 -8 157
-8 8 -14 -6 -24 -60 -14 -74 -55 -137 -114 -174 -46 -28 -57 -30 -158 -33
-120 -4 -157 5 -183 44 -13 21 -16 63 -16 274 0 158 4 257 11 270 22 42 64 52
189 48 125 -4 161 -15 209 -66 34 -37 62 -100 62 -144 0 -29 4 -36 18 -35 15
1 17 16 19 144 l2 143 -282 0 -282 0 -55 -28z"/>
<path d="M878 1039 l-3 -361 150 4 c155 3 185 13 98 33 -86 20 -140 60 -179
135 -16 30 -19 64 -22 223 -2 109 0 187 5 187 5 0 34 -30 64 -67 44 -55 140
-173 301 -368 9 -11 39 -47 66 -81 l50 -61 94 1 93 1 3 358 2 357 -144 0 c-86
0 -147 -4 -151 -10 -3 -5 1 -10 10 -10 34 0 130 -41 158 -67 63 -61 72 -91 75
-280 2 -96 0 -173 -5 -173 -5 0 -69 74 -143 165 -73 91 -137 165 -142 165 -4
0 -8 6 -8 13 0 7 -20 35 -45 60 -25 26 -45 50 -45 53 0 3 -15 23 -32 44 l-33
40 -107 0 -108 0 -2 -361z"/>
<path d="M1710 1046 c1 -309 3 -355 16 -360 9 -3 171 -6 360 -6 l344 0 0 150
c0 127 -2 150 -15 150 -9 0 -15 -9 -15 -25 0 -40 -40 -134 -68 -161 -53 -51
-106 -67 -244 -72 -69 -3 -138 -2 -152 2 l-26 6 0 150 0 150 80 0 c76 0 121
-11 148 -37 17 -16 52 -93 52 -115 0 -10 7 -18 15 -18 13 0 15 28 15 189 0
105 -4 192 -9 195 -8 5 -22 -22 -36 -71 -9 -32 -69 -81 -115 -93 -23 -6 -64
-10 -93 -8 l-52 3 -3 143 -3 142 147 0 c179 0 214 -9 275 -72 44 -44 51 -58
67 -137 4 -19 13 -36 20 -39 9 -3 12 30 12 142 l0 146 -360 0 -360 0 0 -354z"/>
</g>
</svg>
