<?xml version="1.0" standalone="no"?>
<!DOCTYPE svg PUBLIC "-//W3C//DTD SVG 20010904//EN"
 "http://www.w3.org/TR/2001/REC-SVG-20010904/DTD/svg10.dtd">
<svg version="1.0" xmlns="http://www.w3.org/2000/svg"
 width="170.000000pt" height="108.000000pt" viewBox="0 0 170.000000 108.000000"
 preserveAspectRatio="xMidYMid meet">

<g transform="translate(0.000000,108.000000) scale(0.100000,-0.100000)"
fill="#000000" stroke="none">
<path d="M0 615 c0 -34 1 -35 40 -35 l40 0 0 -80 0 -80 40 0 40 0 0 80 0 80
40 0 c39 0 40 1 40 35 l0 35 -120 0 -120 0 0 -35z"/>
<path d="M320 615 l0 -35 80 0 80 0 0 35 0 35 -80 0 -80 0 0 -35z"/>
<path d="M913 593 c-20 -7 -18 -133 1 -133 10 0 16 13 18 37 4 52 28 56 28 4
0 -30 4 -41 16 -41 12 0 14 10 12 48 -3 43 -5 47 -28 47 -17 0 -27 7 -30 21
-3 11 -11 19 -17 17z"/>
<path d="M1045 576 c-29 -29 -32 -62 -9 -94 17 -25 65 -30 83 -9 15 19 4 27
-30 20 -24 -5 -29 -2 -35 21 -10 40 35 80 49 44 4 -10 7 -10 18 0 15 14 5 26
-28 36 -17 5 -29 1 -48 -18z"/>
<path d="M1623 593 c-20 -7 -18 -133 2 -133 11 0 15 11 15 41 0 52 24 48 28
-4 4 -49 32 -52 32 -4 0 41 -21 72 -43 64 -11 -4 -17 1 -19 17 -2 13 -8 21
-15 19z"/>
<path d="M570 580 c0 -5 7 -10 15 -10 12 0 15 -13 15 -55 0 -42 3 -55 15 -55
11 0 15 12 15 51 0 42 3 52 20 56 37 10 20 23 -30 23 -27 0 -50 -4 -50 -10z"/>
<path d="M240 495 l0 -75 120 0 120 0 0 35 0 35 -80 0 -80 0 0 40 0 40 -40 0
-40 0 0 -75z"/>
<path d="M692 548 c-15 -15 -15 -61 0 -76 15 -15 54 -16 63 -2 3 6 -5 10 -19
10 -14 0 -28 5 -31 10 -4 6 7 10 24 10 23 0 31 5 31 18 0 22 -19 42 -40 42 -9
0 -21 -5 -28 -12z m48 -18 c0 -5 -9 -10 -21 -10 -11 0 -17 5 -14 10 3 6 13 10
21 10 8 0 14 -4 14 -10z"/>
<path d="M798 536 c-17 -39 3 -78 40 -74 29 3 33 23 4 23 -11 0 -18 9 -20 28
-3 23 0 28 16 25 10 -2 20 2 21 7 1 6 -10 11 -24 13 -19 3 -28 -3 -37 -22z"/>
<path d="M1160 509 c0 -36 4 -49 14 -49 10 0 16 13 18 38 2 29 7 36 21 34 9
-2 17 3 17 12 0 9 -11 14 -35 14 l-35 0 0 -49z"/>
<path d="M1262 513 c3 -48 3 -48 41 -50 l37 -1 0 49 c0 27 -4 49 -10 49 -5 0
-10 -15 -10 -34 0 -38 -17 -57 -31 -35 -5 8 -9 26 -9 42 0 15 -5 27 -11 27 -6
0 -9 -19 -7 -47z"/>
<path d="M1380 509 c0 -37 4 -49 15 -49 11 0 15 11 15 41 0 52 24 48 28 -4 5
-52 32 -51 32 2 0 45 -13 58 -57 59 -33 1 -33 0 -33 -49z"/>
<path d="M1512 548 c-17 -17 -15 -63 3 -78 17 -14 47 -10 53 9 3 9 -1 11 -16
7 -22 -7 -35 14 -26 39 4 10 13 13 26 9 15 -4 19 -2 16 7 -6 19 -40 23 -56 7z"/>
</g>
</svg>
