<?xml version="1.0" standalone="no"?>
<!DOCTYPE svg PUBLIC "-//W3C//DTD SVG 20010904//EN"
 "http://www.w3.org/TR/2001/REC-SVG-20010904/DTD/svg10.dtd">
<svg version="1.0" xmlns="http://www.w3.org/2000/svg"
 width="328.000000pt" height="208.000000pt" viewBox="0 0 328.000000 208.000000"
 preserveAspectRatio="xMidYMid meet">

<g transform="translate(0.000000,208.000000) scale(0.100000,-0.100000)"
fill="#000000" stroke="none">
<path d="M1768 1581 c-34 -11 -88 -49 -88 -62 0 -6 -7 -17 -15 -26 -8 -8 -13
-19 -10 -24 4 -5 1 -9 -5 -9 -7 0 -10 -6 -7 -14 3 -8 3 -17 -1 -20 -17 -18
-16 -142 2 -193 24 -69 49 -103 136 -192 76 -77 156 -180 180 -232 24 -55 26
-153 4 -209 -42 -104 -162 -108 -234 -9 -30 42 -64 135 -75 207 -14 91 -25 35
-25 -128 0 -93 4 -170 8 -170 5 0 14 11 20 25 15 33 50 33 98 0 96 -65 226
-30 288 78 46 79 57 216 24 296 -6 14 -12 32 -14 39 -2 12 -39 72 -68 111 -6
8 -48 52 -93 99 -46 46 -83 87 -83 91 0 3 -11 18 -24 32 -26 28 -54 106 -58
159 -2 40 26 107 51 119 9 4 33 11 53 14 34 5 42 2 82 -38 25 -24 48 -55 52
-69 3 -14 10 -26 16 -26 5 0 7 -3 4 -8 -2 -4 2 -34 10 -67 8 -33 15 -70 16
-83 0 -12 4 -25 9 -28 5 -3 9 69 9 162 l0 168 -27 -26 c-29 -27 -50 -24 -80
12 -7 8 -13 11 -13 5 0 -5 -4 -4 -9 4 -11 16 -95 24 -133 12z"/>
<path d="M692 1557 c20 -18 31 -47 48 -123 12 -54 24 -108 27 -119 3 -11 6
-20 5 -20 0 0 15 -72 34 -160 19 -88 37 -176 40 -195 3 -19 8 -42 11 -50 3 -8
7 -27 9 -42 2 -15 13 -67 24 -115 12 -48 23 -101 25 -118 3 -16 10 -51 16 -77
9 -41 15 -48 35 -48 19 0 24 5 25 28 0 15 2 34 4 42 15 55 52 266 48 273 -3 4
0 13 5 20 6 7 13 32 16 57 4 33 45 253 55 300 3 14 21 -29 21 -51 0 -14 3 -29
7 -32 3 -4 8 -19 9 -33 4 -33 94 -475 101 -494 3 -8 7 -24 8 -35 8 -56 20 -76
41 -68 8 3 14 13 13 22 -1 9 1 23 4 31 3 8 8 31 11 50 3 19 11 62 19 95 8 33
15 67 15 75 1 8 10 53 22 99 11 46 18 86 16 89 -3 2 -1 12 3 21 8 15 82 355
86 396 2 11 5 27 8 35 3 8 11 39 17 68 8 33 21 59 36 71 13 10 24 22 24 25 0
3 -34 6 -75 6 -41 0 -75 -2 -75 -5 0 -2 12 -16 26 -30 23 -23 25 -31 21 -83
-3 -31 -15 -100 -26 -152 -12 -52 -24 -108 -26 -125 -3 -16 -13 -69 -24 -118
-10 -48 -19 -91 -19 -95 -7 -45 -37 -162 -42 -162 -4 0 -10 17 -14 38 -3 20
-8 55 -11 77 -4 21 -9 43 -11 47 -3 5 -7 23 -10 41 -8 66 -76 413 -83 427 -15
30 -1 94 27 117 l27 23 -124 0 -124 0 21 -23 c15 -16 28 -55 43 -126 23 -115
22 -154 -11 -321 -11 -58 -22 -118 -25 -135 -26 -158 -39 -192 -51 -129 -3 22
-17 89 -30 149 -14 61 -27 126 -30 145 -2 19 -18 99 -34 178 -36 174 -38 217
-10 234 11 7 20 16 20 20 0 5 -55 8 -121 8 l-122 0 25 -23z"/>
<path d="M2348 1563 c28 -10 44 -22 47 -36 3 -12 4 -230 3 -484 -3 -451 -3
-462 -24 -490 -30 -40 -93 -45 -129 -9 -36 36 -32 62 20 110 35 33 45 49 45
74 0 98 -133 92 -160 -7 -30 -114 61 -231 180 -231 95 0 168 59 197 160 4 14
9 216 10 449 3 376 5 427 20 443 9 10 22 18 29 18 7 0 16 5 19 10 4 7 -47 10
-147 9 -149 -1 -152 -1 -110 -16z"/>
</g>
</svg>
